<!--<?xml version="1.0" standalone="no"?>-->
<!--<!DOCTYPE svg PUBLIC "-//W3C//DTD SVG 20010904//EN"-->
<!-- "http://www.w3.org/TR/2001/REC-SVG-20010904/DTD/svg10.dtd">-->
<svg version="1.1" xmlns="http://www.w3.org/2000/svg"
 width="100px" height="40px" viewBox="0 0 506.000000 196.000000"
 preserveAspectRatio="xMidYMid meet">

<g transform="translate(0.000000,196.000000) scale(0.100000,-0.100000)"
fill="#D9D9D4" stroke="none">
<path d="M1150 1805 c0 -78 3 -95 15 -95 12 0 15 16 15 80 l0 80 45 0 c33 0
45 4 45 15 0 12 -13 15 -60 15 l-60 0 0 -95z"/>
<path d="M1320 1805 c0 -78 3 -95 15 -95 8 0 15 4 15 8 0 5 20 35 45 66 l45
58 0 -66 c0 -56 3 -66 18 -66 15 0 17 11 17 95 0 99 -9 116 -37 73 -9 -13 -32
-43 -53 -68 l-37 -44 4 67 c3 58 1 67 -14 67 -16 0 -18 -11 -18 -95z"/>
<path d="M1591 1856 c-10 -24 -25 -60 -32 -80 -7 -20 -17 -36 -21 -36 -4 0 -8
-21 -8 -46 0 -50 22 -59 28 -11 3 26 5 27 68 27 l64 0 0 -30 c0 -16 5 -30 10
-30 6 0 10 6 10 14 0 7 3 28 6 45 5 24 3 31 -10 31 -13 0 -16 13 -16 80 l0 80
-40 0 c-37 0 -40 -3 -59 -44z m67 -54 l3 -62 -41 0 c-22 0 -40 3 -40 7 0 4 10
33 23 65 30 79 51 75 55 -10z"/>
<path d="M1770 1805 c0 -88 1 -95 20 -95 16 0 20 7 20 34 0 30 4 34 32 40 41
8 68 33 68 62 0 33 -36 54 -92 54 l-48 0 0 -95z m95 35 c0 -20 -6 -26 -27 -28
-25 -3 -28 0 -28 28 0 28 3 31 28 28 21 -2 27 -8 27 -28z"/>
<path d="M1999 1885 c-72 -40 -57 -153 23 -170 70 -16 131 52 108 120 -6 18
-17 38 -25 45 -22 18 -78 21 -106 5z m85 -37 c31 -44 7 -108 -39 -108 -27 0
-55 33 -55 65 0 32 28 65 55 65 13 0 31 -10 39 -22z"/>
<path d="M2200 1805 c0 -78 3 -95 15 -95 8 0 15 4 15 8 0 5 20 35 45 66 l45
58 0 -66 c0 -56 3 -66 18 -66 15 0 17 11 17 95 0 99 -9 116 -37 73 -9 -13 -32
-43 -53 -68 l-37 -44 4 67 c3 58 1 67 -14 67 -16 0 -18 -11 -18 -95z"/>
<path d="M2443 1893 c-25 -9 -13 -22 25 -25 29 -2 37 -7 37 -23 0 -15 -8 -21
-32 -23 -41 -4 -46 -32 -5 -32 37 0 56 -14 48 -35 -5 -13 -16 -16 -51 -13 -30
2 -45 -1 -45 -9 0 -29 94 -27 125 3 20 21 19 41 -5 61 -18 16 -18 19 -4 34 38
42 -31 88 -93 62z"/>
<path d="M2664 1890 c-47 -19 -71 -102 -41 -141 36 -47 111 -48 147 -2 59 75
-18 179 -106 143z m70 -36 c35 -34 11 -114 -34 -114 -29 0 -50 28 -50 65 0 37
21 65 50 65 10 0 26 -7 34 -16z"/>
<path d="M2891 1850 c-7 -27 -24 -66 -37 -85 -25 -38 -30 -55 -15 -55 16 0 57
61 76 113 10 26 22 47 26 47 15 0 21 -49 14 -105 -6 -51 -5 -55 14 -55 20 0
21 6 21 95 l0 95 -43 0 -43 0 -13 -50z"/>
<path d="M3083 1890 c-18 -7 -23 -17 -23 -45 0 -28 5 -38 23 -45 12 -5 16 -9
9 -9 -7 -1 -20 -17 -28 -36 -18 -43 -18 -45 4 -45 9 0 24 15 32 33 9 20 24 33
38 35 19 3 22 -1 22 -32 0 -28 4 -36 18 -36 15 0 17 11 17 95 l0 95 -45 -1
c-25 0 -55 -4 -67 -9z m77 -50 c0 -25 -4 -30 -24 -30 -13 0 -29 7 -36 15 -19
23 -4 45 30 45 27 0 30 -3 30 -30z"/>
<path d="M3270 1805 l0 -95 65 0 65 0 0 -30 c0 -20 5 -30 15 -30 11 0 15 12
15 45 0 25 -4 45 -10 45 -6 0 -10 33 -10 80 0 73 -2 80 -20 80 -18 0 -20 -7
-20 -80 l0 -80 -36 0 -36 0 4 80 c3 71 1 80 -14 80 -16 0 -18 -11 -18 -95z"/>
<path d="M3490 1805 c0 -78 3 -95 15 -95 8 0 15 4 15 8 0 5 20 35 45 66 l45
58 0 -66 c0 -56 3 -66 18 -66 15 0 17 11 17 95 0 99 -9 116 -37 73 -9 -13 -32
-43 -53 -68 l-37 -44 4 67 c3 58 1 67 -14 67 -16 0 -18 -11 -18 -95z"/>
<path d="M3732 1884 c-28 -19 -29 -58 -2 -77 18 -12 18 -16 6 -26 -8 -7 -19
-25 -25 -42 -9 -26 -8 -29 9 -29 13 0 25 12 34 35 10 24 22 35 35 35 17 0 21
-6 21 -35 0 -28 4 -35 20 -35 19 0 20 7 20 95 l0 95 -48 0 c-27 0 -57 -7 -70
-16z m78 -44 c0 -25 -4 -30 -25 -30 -27 0 -41 20 -31 45 3 8 17 15 31 15 21 0
25 -5 25 -30z"/>
<path d="M3830 1463 c-52 -60 -104 -168 -126 -258 -34 -143 -16 -363 39 -472
62 -121 200 -222 288 -210 80 11 173 117 212 242 29 95 29 256 -2 370 -25 93
-91 232 -131 275 -25 27 -30 28 -63 18 -34 -10 -37 -9 -89 36 -29 25 -60 46
-70 46 -9 0 -35 -21 -58 -47z m188 -186 c48 -50 66 -133 59 -287 -6 -153 -32
-247 -83 -298 -44 -44 -63 -33 -95 50 -22 56 -24 79 -24 213 1 137 3 157 28
228 30 86 53 127 71 127 7 0 26 -15 44 -33z"/>
<path d="M1629 1480 c-19 -5 -61 -19 -92 -30 -55 -21 -57 -23 -57 -57 0 -53
36 -109 82 -127 35 -15 38 -19 38 -55 0 -63 -20 -388 -30 -491 -8 -78 -7 -99
6 -117 14 -23 109 -83 131 -83 6 0 16 14 22 31 11 32 10 33 70 -8 61 -42 103
-30 190 51 109 102 124 271 34 376 l-34 40 29 42 c60 89 69 180 26 266 -52
104 -154 163 -293 168 -47 2 -102 -1 -122 -6z m278 -186 c31 -43 9 -108 -56
-167 -65 -59 -77 -52 -85 46 -3 45 -9 94 -12 109 -5 23 -3 27 22 31 54 9 117
0 131 -19z m-10 -379 c28 -31 29 -66 4 -120 -20 -46 -83 -105 -110 -105 -10 0
-25 8 -34 18 -14 15 -15 30 -6 122 6 58 16 109 22 113 7 4 32 6 57 3 32 -3 51
-11 67 -31z"/>
<path d="M3031 1462 c-5 -10 -15 -97 -21 -193 -6 -96 -15 -184 -20 -196 -6
-14 -24 -26 -50 -33 -29 -8 -40 -16 -40 -30 0 -20 28 -74 66 -125 19 -26 21
-39 17 -105 -7 -102 10 -189 41 -217 27 -23 125 -49 136 -36 4 5 3 91 -1 192
-8 190 -5 215 30 226 42 13 122 10 131 -5 5 -8 10 -85 10 -170 0 -187 6 -201
101 -249 100 -50 108 -44 84 69 -22 104 -29 323 -15 465 6 66 13 158 16 205
l5 85 -36 48 c-20 26 -47 53 -61 59 -44 20 -56 -5 -70 -149 -21 -208 -19 -201
-65 -213 -22 -6 -59 -10 -82 -8 l-42 3 0 50 c0 28 4 94 9 147 l8 97 -51 51
c-52 52 -84 62 -100 32z"/>
<path d="M318 1464 c-4 -3 0 -21 8 -39 20 -49 18 -55 -15 -49 -24 5 -35 1 -54
-20 -26 -28 -72 -157 -108 -301 -21 -85 -40 -125 -62 -125 -23 0 -77 -34 -77
-49 0 -9 14 -38 30 -64 28 -44 30 -54 30 -142 l0 -94 46 -27 c29 -17 62 -28
87 -28 l41 -1 13 124 c7 72 18 130 25 137 7 7 47 16 89 20 l76 7 7 -44 c3 -24
10 -86 15 -138 9 -103 10 -103 85 -126 57 -17 102 -19 111 -6 3 6 -13 119 -35
252 -87 520 -129 658 -212 700 -36 18 -88 25 -100 13z m85 -364 c8 -41 18 -92
21 -112 l7 -38 -56 0 c-42 0 -57 4 -62 16 -13 34 50 236 68 217 4 -4 14 -42
22 -83z"/>
<path d="M2478 1464 c-4 -3 0 -21 8 -39 20 -49 18 -55 -15 -49 -24 5 -35 1
-54 -20 -26 -28 -72 -157 -108 -301 -21 -85 -40 -125 -62 -125 -23 0 -77 -34
-77 -49 0 -9 14 -38 30 -64 28 -44 30 -54 30 -142 l0 -94 46 -27 c29 -17 62
-28 87 -28 l41 -1 13 124 c7 72 18 130 25 137 7 7 47 16 89 20 l76 7 7 -44 c3
-24 10 -86 15 -138 9 -103 10 -103 85 -126 57 -17 102 -19 111 -6 3 6 -13 119
-35 252 -87 520 -129 658 -212 700 -36 18 -88 25 -100 13z m85 -364 c8 -41 18
-92 21 -112 l7 -38 -56 0 c-42 0 -57 4 -62 16 -13 34 50 236 68 217 4 -4 14
-42 22 -83z"/>
<path d="M4626 1427 c-114 -194 -236 -583 -236 -752 0 -51 3 -58 42 -96 47
-46 94 -73 112 -66 9 4 15 42 19 124 10 202 92 508 137 508 12 0 17 -29 27
-150 27 -336 54 -439 123 -476 43 -23 98 -25 107 -4 15 41 -126 805 -162 874
-14 27 -99 81 -128 81 -9 0 -27 -19 -41 -43z"/>
<path d="M851 1438 c-4 -13 -11 -106 -15 -208 -5 -162 -18 -336 -42 -571 -4
-42 -3 -73 5 -87 16 -30 151 -67 165 -44 2 4 9 82 16 172 13 195 18 232 30
225 5 -3 30 -49 55 -102 81 -172 211 -341 273 -356 29 -7 84 8 112 31 21 17
20 17 -64 113 -48 54 -121 154 -165 225 l-79 129 53 57 c86 92 175 258 175
324 0 29 -76 114 -102 114 -9 0 -28 -29 -47 -72 -18 -40 -50 -103 -71 -139
-44 -74 -125 -163 -140 -154 -6 4 -7 61 -3 154 l6 148 -63 31 c-75 38 -88 39
-99 10z"/>
<path d="M725 379 c-60 -4 -202 -19 -314 -33 -112 -14 -227 -26 -255 -26 -28
0 -68 -3 -89 -6 -31 -6 -37 -10 -37 -32 l0 -25 110 6 c60 4 200 19 312 34 290
38 528 38 838 -2 304 -39 481 -39 790 0 311 40 517 40 835 0 310 -40 504 -39
805 0 294 39 526 39 830 2 118 -15 266 -29 328 -33 l114 -7 -4 29 -3 29 -125
6 c-69 4 -206 17 -305 30 -252 33 -587 33 -825 0 -99 -13 -241 -25 -355 -28
-169 -5 -215 -2 -420 23 -320 40 -603 40 -915 1 -263 -33 -428 -35 -670 -7
-372 43 -477 50 -645 39z"/>
<path d="M660 234 c-205 -26 -454 -54 -532 -60 -96 -7 -98 -7 -98 -32 l0 -25
123 6 c67 4 212 18 322 33 278 36 477 36 765 -1 129 -16 287 -29 395 -32 163
-4 204 -2 430 28 336 44 519 45 825 3 307 -41 567 -41 865 0 286 40 485 41
780 2 116 -15 265 -30 333 -33 l122 -6 0 25 c0 25 -2 25 -97 32 -54 3 -192 19
-308 33 -306 39 -587 39 -880 -2 -283 -39 -477 -39 -760 -1 -133 19 -265 29
-395 33 -180 5 -214 2 -445 -28 -329 -43 -501 -44 -800 -5 -201 26 -548 42
-645 30z"/>
</g>
</svg>
