<!--<?xml version="1.0" standalone="no"?>-->
<!--<!DOCTYPE svg PUBLIC "-//W3C//DTD SVG 20010904//EN"-->
<!-- "http://www.w3.org/TR/2001/REC-SVG-20010904/DTD/svg10.dtd">-->
<svg version="1.1" xmlns="http://www.w3.org/2000/svg"
 width="120px" height="45px" viewBox="0 0 838.000000 167.000000"
 preserveAspectRatio="xMidYMid meet">

<g transform="translate(0.000000,167.000000) scale(0.100000,-0.100000)"
fill="#D9D9D4" stroke="none">
<path d="M4410 1655 c-197 -45 -337 -185 -385 -386 -8 -36 -15 -111 -15 -170
0 -283 120 -459 355 -519 175 -45 425 -10 506 71 15 15 19 33 19 83 0 72 -6
96 -25 96 -7 0 -46 -16 -87 -35 -220 -105 -418 -44 -485 148 -27 79 -24 272 5
348 76 193 265 247 480 137 101 -51 107 -48 107 59 0 73 -1 76 -33 103 -79 66
-297 98 -442 65z"/>
<path d="M1743 1649 l-33 -10 0 -525 0 -524 26 -10 c29 -11 143 -13 170 -3 14
5 369 472 496 652 l38 54 0 -347 0 -346 26 -10 c33 -13 155 -13 188 0 l26 10
0 524 c0 381 -3 527 -11 532 -24 14 -144 16 -176 3 -24 -11 -90 -91 -270 -334
-131 -176 -246 -332 -255 -345 -16 -24 -17 -8 -17 322 -1 257 -4 349 -13 354
-19 12 -160 14 -195 3z"/>
<path d="M3035 1652 l-30 -7 -3 -528 -2 -527 26 -10 c33 -13 155 -13 188 0
l26 9 2 223 3 223 50 -1 c71 0 99 -10 140 -46 44 -38 54 -56 130 -243 47 -114
67 -153 86 -162 29 -15 167 -17 203 -3 17 6 26 17 26 31 0 21 -98 255 -147
352 -32 64 -94 131 -145 156 l-40 20 39 20 c76 38 111 92 203 309 56 135 60
172 20 183 -39 11 -131 10 -172 -1 -34 -10 -39 -16 -68 -93 -69 -180 -84 -214
-109 -252 -34 -53 -98 -85 -168 -85 l-53 0 0 209 c0 138 -4 212 -11 216 -15
10 -159 15 -194 7z"/>
<path d="M5153 1649 l-33 -10 0 -525 0 -524 26 -10 c40 -16 156 -12 181 5 12
8 133 166 270 350 l248 334 3 -340 2 -340 26 -9 c33 -13 155 -13 188 0 l26 10
0 525 c0 604 13 540 -112 540 -69 0 -80 -3 -102 -25 -14 -14 -127 -162 -251
-330 -124 -168 -235 -316 -245 -330 -19 -25 -19 -20 -19 322 -1 257 -4 349
-13 354 -19 12 -160 14 -195 3z"/>
<path d="M7445 1653 c-46 -12 -45 3 -45 -544 l0 -519 26 -10 c34 -13 150 -13
176 1 15 8 292 372 516 678 16 22 17 7 14 -315 -1 -207 2 -345 8 -354 13 -21
199 -22 223 -1 15 12 17 61 17 526 0 446 -2 514 -15 525 -20 17 -143 25 -178
11 -23 -9 -259 -315 -525 -680 -16 -22 -17 -6 -14 316 3 304 2 341 -13 353
-17 14 -153 24 -190 13z"/>
<path d="M25 1625 l-25 -24 0 -506 0 -505 26 -10 c33 -13 145 -13 178 0 l26
10 0 437 c1 290 4 432 10 421 8 -13 200 -510 311 -805 16 -41 26 -54 51 -62
38 -13 148 -14 181 -2 28 11 18 -12 218 495 l154 389 5 -433 5 -434 25 -13
c30 -15 138 -17 174 -3 l26 10 0 509 0 510 -22 21 c-22 20 -32 21 -170 18
-145 -3 -147 -3 -176 -31 -20 -20 -68 -122 -172 -372 -79 -190 -147 -345 -150
-345 -4 0 -69 154 -145 343 -75 188 -144 350 -154 361 -32 37 -75 46 -216 46
-131 0 -137 -1 -160 -25z"/>
<path d="M6300 1631 c-15 -30 -12 -113 6 -139 15 -21 21 -22 170 -22 l154 0 0
-440 0 -440 28 -11 c29 -12 180 -8 200 5 9 5 12 113 12 447 l0 439 154 0 c128
0 156 3 167 16 14 17 18 131 5 152 -5 9 -114 12 -446 12 -424 0 -440 -1 -450
-19z"/>
<path d="M95 350 c-111 -46 -127 -266 -23 -330 40 -24 116 -27 158 -5 33 17
36 26 19 53 -11 18 -13 18 -48 0 -31 -15 -43 -16 -69 -7 -74 25 -90 155 -28
217 26 26 71 34 112 19 17 -6 23 -3 28 15 4 15 0 27 -11 36 -19 13 -107 15
-138 2z"/>
<path d="M340 355 c0 -3 28 -61 63 -131 l62 -126 -24 -19 c-13 -10 -34 -19
-47 -19 -20 0 -24 -5 -24 -30 0 -22 5 -30 18 -30 32 1 99 38 119 66 46 64 123
241 123 281 0 8 -11 13 -29 13 -26 0 -30 -5 -56 -84 -42 -132 -43 -133 -94
-16 -43 98 -44 100 -77 100 -19 0 -34 -2 -34 -5z"/>
<path d="M710 353 c0 -3 21 -42 46 -85 l45 -79 -50 -90 c-28 -49 -51 -91 -51
-95 0 -3 14 -4 32 -2 27 2 37 12 65 58 18 30 36 56 40 57 5 2 25 -24 47 -57
32 -51 43 -60 67 -60 16 0 29 4 29 10 0 5 -24 47 -54 93 l-54 84 54 81 c30 45
54 84 54 87 0 3 -13 5 -30 5 -25 0 -36 -9 -66 -55 -20 -30 -40 -55 -45 -55 -4
0 -22 25 -39 55 -27 47 -36 55 -61 55 -16 0 -29 -3 -29 -7z"/>
<path d="M1087 354 c-4 -4 -7 -85 -7 -181 0 -217 2 -217 120 -57 l85 115 3
-115 3 -116 29 0 30 0 0 181 c0 153 -2 180 -15 177 -8 -2 -52 -54 -99 -117
l-85 -114 -3 114 c-3 114 -3 114 -28 117 -14 2 -29 0 -33 -4z"/>
<path d="M1480 180 l0 -180 110 0 110 0 0 30 0 29 -77 3 -78 3 0 50 0 50 58 3
c53 3 57 5 57 27 0 24 -3 25 -60 25 l-60 0 0 40 0 40 80 0 80 0 0 30 0 30
-110 0 -110 0 0 -180z"/>
<path d="M2044 350 c-33 -13 -83 -77 -90 -116 -18 -94 15 -187 76 -219 37 -19
113 -19 150 0 34 18 34 16 19 48 l-11 24 -39 -20 c-38 -18 -39 -18 -76 0 -73
35 -82 146 -17 211 34 34 58 38 106 18 11 -5 20 -1 28 15 11 19 10 25 -6 36
-20 14 -107 17 -140 3z"/>
<path d="M2300 330 c0 -30 0 -30 55 -30 l55 0 0 -150 0 -150 30 0 30 0 0 150
0 150 61 0 c60 0 60 0 57 28 l-3 27 -142 3 -143 3 0 -31z"/>
<path d="M2690 180 l0 -180 30 0 30 0 0 65 c0 64 0 65 28 65 91 0 142 43 142
121 0 78 -49 109 -172 109 l-58 0 0 -180z m148 104 c48 -33 13 -94 -55 -94
l-33 0 0 55 0 55 33 0 c18 0 43 -7 55 -16z"/>
<path d="M3092 340 c-50 -31 -76 -97 -70 -180 6 -75 27 -119 68 -144 39 -23
117 -21 158 4 97 60 96 278 -2 324 -47 22 -114 20 -154 -4z m111 -41 c36 -16
52 -54 52 -120 -1 -67 -24 -108 -69 -120 -40 -11 -73 8 -90 53 -28 69 -13 148
35 182 28 19 40 20 72 5z"/>
<path d="M3437 354 c-4 -4 -7 -85 -7 -181 0 -217 2 -217 120 -57 l85 115 3
-115 3 -116 29 0 30 0 0 181 c0 153 -2 180 -15 177 -8 -2 -52 -54 -99 -117
l-85 -114 -3 114 c-3 114 -3 114 -28 117 -14 2 -29 0 -33 -4z"/>
<path d="M3810 330 c0 -30 1 -30 55 -30 l55 0 0 -150 0 -150 30 0 30 0 0 150
0 150 60 0 60 0 0 30 0 30 -145 0 -145 0 0 -30z"/>
<path d="M4205 347 c-3 -7 -4 -87 -3 -177 l3 -165 108 -3 107 -3 0 31 0 30
-75 0 -75 0 0 55 0 55 55 0 c52 0 55 1 55 25 0 24 -3 25 -55 25 l-55 0 0 40 0
40 81 0 80 0 -3 28 -3 27 -108 3 c-82 2 -109 0 -112 -11z"/>
<path d="M4617 259 c-21 -126 -46 -186 -81 -195 -21 -5 -26 -12 -26 -36 0 -29
2 -30 32 -24 65 13 99 70 125 206 l17 90 33 0 33 0 0 -150 0 -150 30 0 30 0 0
180 0 180 -88 0 -87 0 -18 -101z"/>
<path d="M4940 179 l0 -182 78 6 c95 6 126 20 147 64 42 88 -21 163 -136 163
-29 0 -29 0 -29 65 l0 65 -30 0 -30 0 0 -181z m156 -20 c19 -15 18 -64 -2 -83
-9 -9 -32 -16 -55 -16 l-39 0 0 53 c0 30 3 57 8 61 9 10 70 0 88 -15z"/>
<path d="M5290 180 l0 -180 30 0 30 0 0 80 0 80 70 0 70 0 0 -80 0 -80 30 0
30 0 0 180 0 180 -30 0 -30 0 0 -70 0 -70 -70 0 -70 0 0 70 0 70 -30 0 -30 0
0 -180z"/>
<path d="M5680 179 l0 -182 73 5 c86 6 130 26 147 68 15 37 7 95 -16 121 -20
22 -88 43 -121 36 -22 -4 -23 -2 -23 64 l0 69 -30 0 -30 0 0 -181z m124 -9
c39 -14 53 -53 32 -85 -13 -20 -25 -25 -56 -25 l-40 0 0 53 c0 70 9 78 64 57z"/>
<path d="M5954 347 c-2 -7 -3 -87 -2 -177 l3 -165 28 -3 27 -3 0 180 0 181
-25 0 c-14 0 -28 -6 -31 -13z"/>
<path d="M6140 180 l0 -180 110 0 110 0 0 30 0 29 -77 3 -78 3 0 50 0 50 58 3
c53 3 57 5 57 27 0 24 -3 25 -60 25 l-60 0 0 40 0 40 80 0 80 0 0 30 0 30
-110 0 -110 0 0 -180z"/>
<path d="M6705 350 c-28 -11 -72 -60 -84 -93 -30 -79 1 -200 61 -237 40 -24
116 -27 158 -5 33 17 36 26 19 53 -11 18 -13 18 -50 -1 -38 -18 -39 -18 -76 0
-73 35 -81 147 -17 211 34 34 58 38 106 18 11 -5 20 -1 28 15 11 19 10 25 -6
36 -20 14 -107 17 -139 3z"/>
<path d="M7025 348 c-7 -22 -65 -321 -65 -335 0 -10 9 -13 28 -11 25 3 28 8
43 78 9 41 18 81 20 89 3 8 20 -27 38 -77 18 -51 38 -92 45 -92 7 0 25 35 40
78 36 105 42 112 50 65 25 -141 25 -143 57 -143 16 0 29 1 29 3 0 2 -16 82
-35 177 -19 95 -35 175 -35 177 0 3 -8 3 -17 1 -12 -2 -27 -37 -53 -118 l-37
-115 -37 118 c-25 78 -43 117 -52 117 -8 0 -16 -6 -19 -12z"/>
<path d="M7415 347 c-3 -7 -4 -87 -3 -177 l3 -165 108 -3 107 -3 0 31 0 30
-75 0 -75 0 0 55 0 55 55 0 c52 0 55 1 55 25 0 24 -3 25 -55 25 l-55 0 0 40 0
40 81 0 80 0 -3 28 -3 27 -108 3 c-82 2 -109 0 -112 -11z"/>
<path d="M7813 340 c-102 -62 -100 -276 3 -325 42 -20 107 -19 150 1 39 19 40
21 18 52 -14 21 -18 22 -33 9 -89 -77 -192 56 -133 173 27 54 71 69 133 45 10
-4 19 3 27 20 11 23 9 26 -14 35 -42 17 -116 12 -151 -10z"/>
<path d="M8110 181 c0 -138 3 -181 13 -181 6 0 50 51 97 113 l85 114 5 -111 5
-111 30 0 30 0 3 178 c3 222 1 223 -118 61 l-85 -115 -5 113 -5 113 -27 3 -28
3 0 -180z"/>
</g>
</svg>
